/* XPM */
static char * hp_xpm[] = {
"40 37 2 1",
" 	c None",
".	c #E30A17",
"        .......         ........        ",
"      ............    ............      ",
"     ..............  ...............    ",
"   ..................................   ",
"   ...................................  ",
"  ....................................  ",
" ...................................... ",
" ...................................... ",
"........................................",
"........................................",
"........................................",
"........................................",
"........................................",
"........................................",
"........................................",
"........................................",
" ...................................... ",
" ...................................... ",
"  ....................................  ",
"  ...................................   ",
"   ..................................   ",
"    ................................    ",
"     ..............................     ",
"      ............................      ",
"       ..........................       ",
"        ........................        ",
"         ......................         ",
"          ....................          ",
"           ..................           ",
"            ................            ",
"             ..............             ",
"              ............              ",
"               ..........               ",
"                ........                ",
"                 ......                 ",
"                  ....                  ",
"                   ..                   "};
