/* XPM */
static char *green_simple_cross_xpm[] = {
/* width height num_colors chars_per_pixel */
" 36 36 5 1",
/* colors */
"` c None",
". c #00ff00",
"# c #ff0000",
"a c #000000",
"b c #0000ff",
/* pixels */
"`ccc```ccc``............############",
"`ccc```ccc``............############",
"`ccc```ccc``............############",
"````````````............############",
"````````````............############",
"````````````............############",
"````````````............############",
"````````````............############",
"````````````............############",
"````````````............############",
"````````````............############",
"````````````............############",
"....................................",
"....................................",
"....................................",
"....................................",
"....................................",
"....................................",
"....................................",
"....................................",
"....................................",
"....................................",
"....................................",
"....................................",
"aaaaaaaaaaaa............bbbbbbbbbbbb",
"aaaaaaaaaaaa............bbbbbbbbbbbb",
"aaaaaaaaaaaa............bbbbbbbbbbbb",
"aaaaaaaaaaaa............bbbbbbbbbbbb",
"aaaaaaaaaaaa............bbbbbbbbbbbb",
"aaaaaaaaaaaa............bbbbbbbbbbbb",
"aaaaaaaaaaaa............bbbbbbbbbbbb",
"aaaaaaaaaaaa............bbbbbbbbbbbb",
"aaaaaaaaaaaa............bbbbbbbbbbbb",
"aaaaaaaaaaaa............bbbbbbbbbbbb",
"aaaaaaaaaaaa............bbbbbbbbbbbb",
"aaaaaaaaaaaa............bbbbbbbbbbbb"
};
